<?xml version="1.0" encoding="iso-8859-1"?>
<!-- Generator: Adobe Illustrator 19.0.0, SVG Export Plug-In . SVG Version: 6.00 Build 0)  -->
<svg version="1.1" id="Layer_1" xmlns="http://www.w3.org/2000/svg" xmlns:xlink="http://www.w3.org/1999/xlink" x="0px" y="0px"
	 viewBox="0 0 503.322 503.322" style="enable-background:new 0 0 503.322 503.322;" xml:space="preserve">
<g>
	<g>
		<g>
			<path d="M121.492,442.575h-43.39c-4.79,0-8.678,3.879-8.678,8.678c0,4.799,3.888,8.678,8.678,8.678h43.39
				c4.79,0,8.678-3.879,8.678-8.678C130.17,446.454,126.282,442.575,121.492,442.575z"/>
			<path d="M373.153,442.575H156.203c-4.79,0-8.678,3.879-8.678,8.678c0,4.799,3.888,8.678,8.678,8.678h216.949
				c4.79,0,8.678-3.879,8.678-8.678C381.831,446.454,377.943,442.575,373.153,442.575z"/>
			<path d="M185.131,147.525h133.059c1.597,0,2.898-1.293,2.898-2.89V80.991c0-1.597-1.302-2.89-2.898-2.89H185.131
				c-1.597,0-2.89,1.293-2.89,2.89v63.644C182.242,146.232,183.535,147.525,185.131,147.525z"/>
			<path d="M431.321,0h-6.101v399.186h-17.356V0H104.136v399.186H86.78V0H68.573C49.898,0,34.712,15.195,34.712,33.861v417.393
				c0,28.715,23.352,52.068,52.068,52.068h360.83c11.585,0,21.001-9.424,21.001-21.001v-65.779v-17.356V37.289
				C468.61,16.731,451.879,0,431.321,0z M164.881,80.991c0-11.16,9.086-20.246,20.246-20.246h133.068
				c11.16,0,20.246,9.086,20.246,20.246v63.644c0,11.16-9.086,20.246-20.246,20.246H185.127c-11.16,0-20.246-9.086-20.246-20.246
				V80.991z M312.407,312.407c0,4.799-3.888,8.678-8.678,8.678H199.593c-4.79,0-8.678-3.879-8.678-8.678s3.888-8.678,8.678-8.678
				h104.136C308.519,303.729,312.407,307.608,312.407,312.407z M164.881,338.441h173.559c4.79,0,8.678,3.879,8.678,8.678
				c0,4.799-3.888,8.678-8.678,8.678H164.881c-4.79,0-8.678-3.879-8.678-8.678C156.203,342.32,160.091,338.441,164.881,338.441z
				 M451.254,482.321c0,2.005-1.631,3.645-3.645,3.645H86.78c-19.144,0-34.712-15.568-34.712-34.712s15.568-34.712,34.712-34.712
				h17.356h303.729h17.356h26.034V482.321z"/>
		</g>
	</g>
</g>
<g>
</g>
<g>
</g>
<g>
</g>
<g>
</g>
<g>
</g>
<g>
</g>
<g>
</g>
<g>
</g>
<g>
</g>
<g>
</g>
<g>
</g>
<g>
</g>
<g>
</g>
<g>
</g>
<g>
</g>
</svg>
