<?xml version="1.0" encoding="iso-8859-1"?>
<!-- Generator: Adobe Illustrator 19.0.0, SVG Export Plug-In . SVG Version: 6.00 Build 0)  -->
<svg version="1.1" id="Layer_1" xmlns="http://www.w3.org/2000/svg" xmlns:xlink="http://www.w3.org/1999/xlink" x="0px" y="0px"
	 viewBox="0 0 512 512" style="enable-background:new 0 0 512 512;" xml:space="preserve">
<g>
	<g>
		<path d="M446.32,0.427H163.645c-36.215,0-65.68,29.463-65.68,65.678v47.517H0v245.902c0,36.215,29.464,65.678,65.68,65.678
			h130.254v86.369h16.696h282.675H512V66.106C512,29.891,482.536,0.427,446.32,0.427z M97.967,359.525
			c0,17.803-14.484,32.287-32.287,32.287c-17.803,0-32.288-14.484-32.288-32.287V147.014h64.575V359.525z M195.935,391.814H122.84
			c5.412-9.542,8.518-20.556,8.518-32.287V66.106c0-17.803,14.485-32.287,32.288-32.287c17.803,0,32.288,14.484,32.288,32.287
			V391.814z M478.609,478.181H229.325V66.106c0-11.728-3.089-22.747-8.498-32.287H446.32c17.803,0,32.288,14.484,32.288,32.287
			V478.181z"/>
	</g>
</g>
<g>
	<g>
		<rect x="264.982" y="347.637" width="88.983" height="33.391"/>
	</g>
</g>
<g>
	<g>
		<rect x="264.982" y="82.365" width="177.964" height="33.391"/>
	</g>
</g>
<g>
	<g>
		<rect x="264.982" y="149.727" width="177.964" height="33.391"/>
	</g>
</g>
<g>
	<g>
		<rect x="264.982" y="217.088" width="177.964" height="33.391"/>
	</g>
</g>
<g>
</g>
<g>
</g>
<g>
</g>
<g>
</g>
<g>
</g>
<g>
</g>
<g>
</g>
<g>
</g>
<g>
</g>
<g>
</g>
<g>
</g>
<g>
</g>
<g>
</g>
<g>
</g>
<g>
</g>
</svg>
