<?xml version="1.0" encoding="iso-8859-1"?>
<!-- Generator: Adobe Illustrator 19.0.0, SVG Export Plug-In . SVG Version: 6.00 Build 0)  -->
<svg version="1.1" id="Layer_1" xmlns="http://www.w3.org/2000/svg" xmlns:xlink="http://www.w3.org/1999/xlink" x="0px" y="0px"
	 viewBox="0 0 512 512" style="enable-background:new 0 0 512 512;" xml:space="preserve">
<g transform="translate(1 1)">
	<g>
		<g>
			<path d="M84.333-1C37.4-1-1,37.4-1,84.333c0,46.933,38.4,85.333,85.333,85.333c46.933,0,85.333-38.4,85.333-85.333
				C169.667,37.4,131.267-1,84.333-1z M84.333,152.6c-37.547,0-68.267-30.72-68.267-68.267c0-37.547,30.72-68.267,68.267-68.267
				c37.547,0,68.267,30.72,68.267,68.267C152.6,121.88,121.88,152.6,84.333,152.6z"/>
			<path d="M112.493,53.613L75.645,97.832L56.173,78.36c-3.413-3.413-8.533-3.413-11.947,0s-3.413,8.533,0,11.947l25.6,25.6
				c0.158,0.158,0.316,0.301,0.475,0.444c0.125,0.138,0.246,0.277,0.379,0.41c0.274,0.274,0.734,0.545,1.275,0.79
				c1.1,0.606,2.32,0.916,3.845,0.916c2.56,0,5.12-0.853,6.827-2.56l42.667-51.2c3.413-3.413,2.56-8.533-0.853-11.947
				S115.907,50.2,112.493,53.613z"/>
			<path d="M472.6,178.2c-7.68,0-15.36,2.56-21.333,7.68v-7.68c0-20.48-16.213-42.667-38.4-42.667c-7.68,0-15.36,2.56-21.333,7.68
				c0-19.627-17.067-41.813-38.4-41.813c-7.68,0-15.36,2.56-21.333,7.68V41.667C331.8,21.187,315.587-1,293.4-1
				C271.213-1,255,21.187,255,41.667v180.907c-7.68-16.213-17.92-31.573-28.16-41.813c-13.653-13.653-40.96-14.507-56.32-1.707
				c-4.267,4.267-18.773,19.627,0.853,46.933c17.92,25.6,32.427,81.92,32.427,114.347c0,68.267,44.373,98.987,59.733,107.52v54.613
				c0,5.12,3.413,8.533,8.533,8.533c5.12,0,8.533-3.413,8.533-8.533v-59.733c0-3.413-1.707-5.973-5.12-7.68
				c-2.56-0.853-54.613-25.6-54.613-94.72c0-31.573-13.653-93.867-35.84-124.587c-5.973-7.68-11.093-17.92-3.413-23.893
				c8.533-6.827,25.6-6.827,33.28,0.853C236.227,214.04,255,259.267,255,280.6c0,5.12,3.413,8.533,8.533,8.533
				s8.533-3.413,8.533-8.533V41.667c0-11.947,9.387-25.6,21.333-25.6c11.947,0,21.333,13.653,21.333,25.6V142.36
				c0,0.853,0,0.853,0,1.707V229.4c0,5.12,3.413,8.533,8.533,8.533s8.533-3.413,8.533-8.533v-86.187
				c0.853-11.947,10.24-24.747,21.333-24.747c11.947,0,21.333,13.653,21.333,25.6v93.867c0,5.12,3.413,8.533,8.533,8.533
				s8.533-3.413,8.533-8.533V178.2c0-11.947,9.387-25.6,21.333-25.6c11.947,0,21.333,13.653,21.333,25.6v40.96
				c0,0.853,0,0.853,0,1.707V255c0,5.12,3.413,8.533,8.533,8.533s8.533-3.413,8.533-8.533v-35.84
				c0.853-11.093,10.24-23.893,21.333-23.893c11.947,0,21.333,13.653,21.333,25.6v119.467c0,64.853,0,64.853-23.893,97.28
				c-1.707,1.707-1.707,4.267-1.707,5.973v58.88c0,5.12,3.413,8.533,8.533,8.533s8.533-3.413,8.533-8.533v-57.173
				c25.6-34.133,25.6-38.4,25.6-104.96V220.867C511,200.387,494.787,178.2,472.6,178.2z"/>
			<path d="M383,434.2c5.12,0,8.533-3.413,8.533-8.533s-3.413-8.533-8.533-8.533h-25.6c-5.12,0-8.533,3.413-8.533,8.533
				s3.413,8.533,8.533,8.533H383z"/>
			<path d="M391.533,451.267h-42.667c-5.12,0-8.533,3.413-8.533,8.533c0,5.12,3.413,8.533,8.533,8.533h42.667
				c5.12,0,8.533-3.413,8.533-8.533C400.067,454.68,396.653,451.267,391.533,451.267z"/>
		</g>
	</g>
</g>
<g>
</g>
<g>
</g>
<g>
</g>
<g>
</g>
<g>
</g>
<g>
</g>
<g>
</g>
<g>
</g>
<g>
</g>
<g>
</g>
<g>
</g>
<g>
</g>
<g>
</g>
<g>
</g>
<g>
</g>
</svg>
