<?xml version="1.0" encoding="iso-8859-1"?>
<!-- Generator: Adobe Illustrator 19.0.0, SVG Export Plug-In . SVG Version: 6.00 Build 0)  -->
<svg version="1.1" id="Layer_1" xmlns="http://www.w3.org/2000/svg" xmlns:xlink="http://www.w3.org/1999/xlink" x="0px" y="0px"
	 viewBox="0 0 441.365 441.365" style="enable-background:new 0 0 441.365 441.365;" xml:space="preserve">
<g id="XMLID_9_">
	<path id="XMLID_10_" d="M117.12,92.641c3.838,0,7.678-1.465,10.606-4.393c5.858-5.858,5.858-15.355,0.001-21.213L95.909,35.215
		c-5.858-5.857-15.355-5.858-21.213-0.001c-5.858,5.858-5.858,15.356-0.001,21.213l31.818,31.819
		C109.442,91.176,113.281,92.641,117.12,92.641z"/>
	<path id="XMLID_11_" d="M244.396,88.244c2.929,2.929,6.768,4.394,10.607,4.394c3.838,0,7.678-1.465,10.607-4.393l31.82-31.819
		c5.858-5.858,5.858-15.355,0-21.213c-5.857-5.857-15.355-5.858-21.213,0l-31.82,31.819
		C238.539,72.889,238.539,82.386,244.396,88.244z"/>
	<path id="XMLID_12_" d="M146.891,62.238c2.393,5.777,7.978,9.264,13.864,9.264c1.913,0,3.857-0.368,5.734-1.146
		c7.654-3.17,11.288-11.945,8.118-19.599L157.42,9.264c-3.171-7.653-11.945-11.288-19.599-8.118
		c-7.654,3.17-11.288,11.945-8.118,19.599L146.891,62.238z"/>
	<path id="XMLID_13_" d="M205.633,70.356c1.877,0.778,3.822,1.146,5.735,1.146c5.886,0,11.471-3.487,13.864-9.263l17.189-41.494
		c3.17-7.653-0.463-16.428-8.117-19.599c-7.653-3.17-16.429,0.463-19.599,8.117l-17.189,41.494
		C194.346,58.411,197.979,67.186,205.633,70.356z"/>
	<path id="XMLID_14_" d="M371.053,266.849c0.001-0.073,0.011-0.143,0.011-0.216c0-0.005,0-0.01,0-0.015
		c0-0.081-0.005-0.162-0.006-0.243c-0.14-35.723-29.239-64.742-64.985-64.742l-75.008-0.042v-55.008c0-24.813-20.187-45-45-45
		c-24.813,0-45,20.187-45,45v57.58c-4.695-1.665-9.742-2.58-15-2.58c-24.813,0-45,20.187-45,45v59.781
		c0,74.439,60.561,135,134.999,135.001c0.001,0,0,0,0,0c8.284,0,15.001-6.716,15.001-15c0-8.284-6.715-15-15-15
		c-57.897-0.001-105-47.104-105-105.001v-59.781c0-8.271,6.729-15,15-15s15,6.729,15,15v60c0,8.284,6.716,15,15,15
		c8.284,0,15-6.716,15-15v-160c0-8.271,6.729-15,15-15s15,6.729,15,15v70c0,0.25,0.025,0.494,0.038,0.741
		c0.013,0.263,0.013,0.529,0.04,0.789c0.027,0.269,0.08,0.53,0.121,0.795c0.036,0.231,0.059,0.466,0.106,0.694
		c0.059,0.289,0.143,0.569,0.219,0.853c0.052,0.194,0.091,0.394,0.15,0.584c0.09,0.291,0.204,0.57,0.311,0.852
		c0.066,0.175,0.12,0.355,0.192,0.526c0.117,0.276,0.257,0.541,0.39,0.809c0.082,0.167,0.153,0.34,0.242,0.503
		c0.14,0.258,0.301,0.502,0.456,0.751c0.1,0.161,0.189,0.329,0.295,0.486c0.154,0.228,0.328,0.442,0.494,0.661
		c0.124,0.164,0.239,0.336,0.37,0.495c0.159,0.193,0.335,0.37,0.504,0.555c0.155,0.17,0.301,0.348,0.464,0.51
		c0.169,0.169,0.354,0.322,0.531,0.482c0.178,0.162,0.349,0.333,0.534,0.486c0.176,0.145,0.365,0.273,0.547,0.409
		c0.202,0.152,0.398,0.313,0.607,0.455c0.181,0.122,0.374,0.226,0.56,0.341c0.225,0.138,0.444,0.285,0.676,0.411
		c0.19,0.103,0.39,0.187,0.584,0.282c0.242,0.118,0.479,0.245,0.728,0.35c0.188,0.08,0.385,0.14,0.576,0.212
		c0.267,0.1,0.529,0.208,0.802,0.293c0.204,0.063,0.415,0.106,0.623,0.161c0.271,0.072,0.537,0.153,0.814,0.209
		c0.225,0.046,0.457,0.069,0.686,0.105c0.268,0.042,0.531,0.095,0.804,0.122c0.236,0.024,0.479,0.024,0.719,0.037
		c0.27,0.014,0.537,0.041,0.81,0.041l90.008,0.05c18.857,0,34.271,14.993,34.967,33.683l-29.676,148.524
		c-1.623,8.124,3.647,16.025,11.77,17.648c0.992,0.198,1.98,0.293,2.955,0.293c7.004,0,13.268-4.933,14.693-12.064l29.974-150.017
		c0.007-0.033,0.013-0.066,0.02-0.099l0.006-0.03c0.02-0.097,0.025-0.194,0.043-0.291c0.069-0.386,0.134-0.773,0.173-1.169
		C371.031,267.689,371.046,267.268,371.053,266.849z"/>
</g>
<g>
</g>
<g>
</g>
<g>
</g>
<g>
</g>
<g>
</g>
<g>
</g>
<g>
</g>
<g>
</g>
<g>
</g>
<g>
</g>
<g>
</g>
<g>
</g>
<g>
</g>
<g>
</g>
<g>
</g>
</svg>
