<?xml version="1.0" encoding="iso-8859-1"?>
<!-- Generator: Adobe Illustrator 19.0.0, SVG Export Plug-In . SVG Version: 6.00 Build 0)  -->
<svg version="1.1" id="Layer_1" xmlns="http://www.w3.org/2000/svg" xmlns:xlink="http://www.w3.org/1999/xlink" x="0px" y="0px"
	 viewBox="0 0 490 490" style="enable-background:new 0 0 490 490;" xml:space="preserve">
<g>
	<g>
		<g>
			<path d="M470,72.5H190v-25c0-11.028-8.972-20-20-20H80c-11.028,0-20,8.972-20,20v25H20c-11.028,0-20,8.972-20,20v300.4
				c0,5.522,4.478,10,10,10h50.762c2.364,8.409,10.083,14.6,19.238,14.6h30v25c0,11.028,8.972,20,20,20h80c11.028,0,20-8.972,20-20
				v-40h250c5.522,0,10-4.478,10-10v-300C490,81.472,481.028,72.5,470,72.5z M60,382.9H20v-10.4h40V382.9z M60,352.5H20v-260h40
				V352.5z M80,397.5v-55h70v-20H80v-275h90l0.002,350H80z M210,442.5h-80v-25h40c9.299,0,17.113-6.388,19.342-15H210V442.5z
				 M470,382.5H190v-10h280V382.5z M470,352.5H190v-260h20v235h20v-235h240V352.5z"/>
			<path d="M255,197.5h190c5.522,0,10-4.478,10-10v-70c0-5.522-4.478-10-10-10H255c-5.522,0-10,4.478-10,10v70
				C245,193.022,249.478,197.5,255,197.5z M265,127.5h170v50H265V127.5z"/>
			<path d="M90,67.5v20h20v-10h10v-20h-20C94.478,57.5,90,61.978,90,67.5z"/>
			<path d="M300,212.5h-40c-5.522,0-10,4.478-10,10v35c0,5.522,4.478,10,10,10h40c5.522,0,10-4.478,10-10v-35
				C310,216.978,305.522,212.5,300,212.5z M290,247.5h-20v-15h20V247.5z"/>
			<path d="M300,282.5h-40c-5.522,0-10,4.478-10,10v35c0,5.522,4.478,10,10,10h40c5.522,0,10-4.478,10-10v-35
				C310,286.978,305.522,282.5,300,282.5z M290,317.5h-20v-15h20V317.5z"/>
			<path d="M370,212.5h-40c-5.522,0-10,4.478-10,10v35c0,5.522,4.478,10,10,10h40c5.522,0,10-4.478,10-10v-35
				C380,216.978,375.522,212.5,370,212.5z M360,247.5h-20v-15h20V247.5z"/>
			<path d="M370,282.5h-40c-5.522,0-10,4.478-10,10v35c0,5.522,4.478,10,10,10h40c5.522,0,10-4.478,10-10v-35
				C380,286.978,375.522,282.5,370,282.5z M360,317.5h-20v-15h20V317.5z"/>
			<path d="M440,212.5h-40c-5.522,0-10,4.478-10,10v35c0,5.522,4.478,10,10,10h40c5.522,0,10-4.478,10-10v-35
				C450,216.978,445.522,212.5,440,212.5z M430,247.5h-20v-15h20V247.5z"/>
			<path d="M440,282.5h-40c-5.522,0-10,4.478-10,10v35c0,5.522,4.478,10,10,10h40c5.522,0,10-4.478,10-10v-35
				C450,286.978,445.522,282.5,440,282.5z M430,317.5h-20v-15h20V317.5z"/>
			<rect x="280" y="137.5" width="20" height="30"/>
			<rect x="310" y="137.5" width="20" height="30"/>
			<rect x="340" y="137.5" width="20" height="30"/>
			<rect x="370" y="137.5" width="20" height="30"/>
			<rect x="400" y="137.5" width="20" height="30"/>
		</g>
	</g>
</g>
<g>
</g>
<g>
</g>
<g>
</g>
<g>
</g>
<g>
</g>
<g>
</g>
<g>
</g>
<g>
</g>
<g>
</g>
<g>
</g>
<g>
</g>
<g>
</g>
<g>
</g>
<g>
</g>
<g>
</g>
</svg>
